<svg width="20" height="21" viewBox="0 0 20 21" fill="none" xmlns="http://www.w3.org/2000/svg">
<path d="M15.9999 13C15.4091 13.0039 14.8265 13.1386 14.2939 13.3945C13.7614 13.6504 13.2921 14.0211 12.9199 14.48L7.81991 12.13C8.05969 11.3957 8.05969 10.6042 7.81991 9.86999L12.9199 7.51999C13.5215 8.24596 14.3602 8.73607 15.2881 8.90383C16.2159 9.07159 17.1731 8.90622 17.9909 8.4369C18.8086 7.96757 19.4343 7.22447 19.7575 6.33874C20.0806 5.453 20.0805 4.48157 19.7572 3.5959C19.4339 2.71022 18.8081 1.96724 17.9902 1.49806C17.1724 1.02889 16.2151 0.863686 15.2873 1.03162C14.3596 1.19955 13.5209 1.68981 12.9194 2.41589C12.318 3.14196 11.9923 4.05717 11.9999 4.99999C12.0029 5.23822 12.0263 5.47576 12.0699 5.70999L6.78991 8.13999C6.22699 7.58957 5.51415 7.21751 4.74071 7.07042C3.96727 6.92333 3.16762 7.00776 2.44196 7.31312C1.71629 7.61849 1.09687 8.13121 0.661306 8.78705C0.225744 9.4429 -0.0065918 10.2127 -0.0065918 11C-0.0065918 11.7873 0.225744 12.5571 0.661306 13.2129C1.09687 13.8688 1.71629 14.3815 2.44196 14.6869C3.16762 14.9922 3.96727 15.0767 4.74071 14.9296C5.51415 14.7825 6.22699 14.4104 6.78991 13.86L12.0699 16.29C12.0263 16.5242 12.0029 16.7618 11.9999 17C11.9999 17.7911 12.2345 18.5645 12.674 19.2223C13.1136 19.8801 13.7383 20.3928 14.4692 20.6955C15.2001 20.9983 16.0043 21.0775 16.7803 20.9231C17.5562 20.7688 18.2689 20.3878 18.8283 19.8284C19.3877 19.269 19.7687 18.5563 19.923 17.7804C20.0774 17.0044 19.9982 16.2002 19.6954 15.4693C19.3927 14.7384 18.88 14.1136 18.2222 13.6741C17.5644 13.2346 16.791 13 15.9999 13ZM15.9999 2.99999C16.3955 2.99999 16.7822 3.11729 17.111 3.33705C17.4399 3.55682 17.6963 3.86917 17.8477 4.23463C17.999 4.60008 18.0386 5.00221 17.9615 5.39017C17.8843 5.77813 17.6938 6.1345 17.4141 6.41421C17.1344 6.69391 16.778 6.88439 16.3901 6.96156C16.0021 7.03873 15.6 6.99913 15.2345 6.84775C14.8691 6.69638 14.5567 6.44003 14.337 6.11113C14.1172 5.78223 13.9999 5.39556 13.9999 4.99999C13.9999 4.46956 14.2106 3.96085 14.5857 3.58578C14.9608 3.21071 15.4695 2.99999 15.9999 2.99999ZM3.99991 13C3.60434 13 3.21766 12.8827 2.88877 12.6629C2.55987 12.4432 2.30352 12.1308 2.15215 11.7654C2.00077 11.3999 1.96116 10.9978 2.03834 10.6098C2.11551 10.2218 2.30599 9.86548 2.58569 9.58578C2.8654 9.30607 3.22176 9.11559 3.60973 9.03842C3.99769 8.96125 4.39982 9.00086 4.76527 9.15223C5.13073 9.30361 5.44308 9.55995 5.66285 9.88885C5.88261 10.2178 5.99991 10.6044 5.99991 11C5.99991 11.5304 5.78919 12.0391 5.41412 12.4142C5.03905 12.7893 4.53034 13 3.99991 13ZM15.9999 19C15.6043 19 15.2177 18.8827 14.8888 18.6629C14.5599 18.4432 14.3035 18.1308 14.1521 17.7654C14.0008 17.3999 13.9612 16.9978 14.0383 16.6098C14.1155 16.2218 14.306 15.8655 14.5857 15.5858C14.8654 15.3061 15.2218 15.1156 15.6097 15.0384C15.9977 14.9613 16.3998 15.0009 16.7653 15.1522C17.1307 15.3036 17.4431 15.56 17.6628 15.8889C17.8826 16.2177 17.9999 16.6044 17.9999 17C17.9999 17.5304 17.7892 18.0391 17.4141 18.4142C17.039 18.7893 16.5303 19 15.9999 19Z" fill="#3E3E40"/>
</svg>
