<svg width="20" height="20" viewBox="0 0 20 20" fill="none" xmlns="http://www.w3.org/2000/svg">
<path d="M18 6.18V1C18 0.734784 17.8946 0.48043 17.7071 0.292893C17.5196 0.105357 17.2652 0 17 0C16.7348 0 16.4804 0.105357 16.2929 0.292893C16.1054 0.48043 16 0.734784 16 1V6.18C15.4209 6.3902 14.9205 6.77363 14.5668 7.27816C14.2132 7.7827 14.0235 8.38388 14.0235 9C14.0235 9.61612 14.2132 10.2173 14.5668 10.7218C14.9205 11.2264 15.4209 11.6098 16 11.82V19C16 19.2652 16.1054 19.5196 16.2929 19.7071C16.4804 19.8946 16.7348 20 17 20C17.2652 20 17.5196 19.8946 17.7071 19.7071C17.8946 19.5196 18 19.2652 18 19V11.82C18.5792 11.6098 19.0795 11.2264 19.4332 10.7218C19.7868 10.2173 19.9765 9.61612 19.9765 9C19.9765 8.38388 19.7868 7.7827 19.4332 7.27816C19.0795 6.77363 18.5792 6.3902 18 6.18ZM17 10C16.8022 10 16.6089 9.94135 16.4444 9.83147C16.28 9.72159 16.1518 9.56541 16.0761 9.38268C16.0004 9.19996 15.9806 8.99889 16.0192 8.80491C16.0578 8.61093 16.153 8.43275 16.2929 8.29289C16.4328 8.15304 16.6109 8.0578 16.8049 8.01921C16.9989 7.98063 17.2 8.00043 17.3827 8.07612C17.5654 8.15181 17.7216 8.27998 17.8315 8.44443C17.9414 8.60888 18 8.80222 18 9C18 9.26522 17.8946 9.51957 17.7071 9.70711C17.5196 9.89464 17.2652 10 17 10ZM11 12.18V1C11 0.734784 10.8946 0.48043 10.7071 0.292893C10.5196 0.105357 10.2652 0 10 0C9.73479 0 9.48044 0.105357 9.2929 0.292893C9.10536 0.48043 9.00001 0.734784 9.00001 1V12.18C8.42085 12.3902 7.92047 12.7736 7.56685 13.2782C7.21323 13.7827 7.02353 14.3839 7.02353 15C7.02353 15.6161 7.21323 16.2173 7.56685 16.7218C7.92047 17.2264 8.42085 17.6098 9.00001 17.82V19C9.00001 19.2652 9.10536 19.5196 9.2929 19.7071C9.48044 19.8946 9.73479 20 10 20C10.2652 20 10.5196 19.8946 10.7071 19.7071C10.8946 19.5196 11 19.2652 11 19V17.82C11.5792 17.6098 12.0795 17.2264 12.4332 16.7218C12.7868 16.2173 12.9765 15.6161 12.9765 15C12.9765 14.3839 12.7868 13.7827 12.4332 13.2782C12.0795 12.7736 11.5792 12.3902 11 12.18ZM10 16C9.80222 16 9.60888 15.9414 9.44444 15.8315C9.27999 15.7216 9.15181 15.5654 9.07613 15.3827C9.00044 15.2 8.98063 14.9989 9.01922 14.8049C9.05781 14.6109 9.15305 14.4327 9.2929 14.2929C9.43275 14.153 9.61093 14.0578 9.80492 14.0192C9.9989 13.9806 10.2 14.0004 10.3827 14.0761C10.5654 14.1518 10.7216 14.28 10.8315 14.4444C10.9414 14.6089 11 14.8022 11 15C11 15.2652 10.8946 15.5196 10.7071 15.7071C10.5196 15.8946 10.2652 16 10 16ZM4.00001 4.18V1C4.00001 0.734784 3.89465 0.48043 3.70711 0.292893C3.51958 0.105357 3.26522 0 3.00001 0C2.73479 0 2.48044 0.105357 2.2929 0.292893C2.10536 0.48043 2.00001 0.734784 2.00001 1V4.18C1.42085 4.3902 0.920466 4.77363 0.566847 5.27817C0.213229 5.7827 0.0235291 6.38388 0.0235291 7C0.0235291 7.61612 0.213229 8.2173 0.566847 8.72184C0.920466 9.22637 1.42085 9.6098 2.00001 9.82V19C2.00001 19.2652 2.10536 19.5196 2.2929 19.7071C2.48044 19.8946 2.73479 20 3.00001 20C3.26522 20 3.51958 19.8946 3.70711 19.7071C3.89465 19.5196 4.00001 19.2652 4.00001 19V9.82C4.57916 9.6098 5.07955 9.22637 5.43316 8.72184C5.78678 8.2173 5.97648 7.61612 5.97648 7C5.97648 6.38388 5.78678 5.7827 5.43316 5.27817C5.07955 4.77363 4.57916 4.3902 4.00001 4.18ZM3.00001 8C2.80222 8 2.60888 7.94135 2.44444 7.83147C2.27999 7.72159 2.15181 7.56541 2.07613 7.38268C2.00044 7.19996 1.98064 6.99889 2.01922 6.80491C2.05781 6.61093 2.15305 6.43275 2.2929 6.29289C2.43275 6.15304 2.61093 6.0578 2.80492 6.01921C2.9989 5.98063 3.19996 6.00043 3.38269 6.07612C3.56542 6.15181 3.72159 6.27998 3.83148 6.44443C3.94136 6.60888 4.00001 6.80222 4.00001 7C4.00001 7.26522 3.89465 7.51957 3.70711 7.70711C3.51958 7.89464 3.26522 8 3.00001 8Z" fill="#3E3E40"/>
</svg>
