<svg width="21" height="20" viewBox="0 0 21 20" fill="none" xmlns="http://www.w3.org/2000/svg">
<path d="M14.21 10.71C15.1904 9.93866 15.906 8.88092 16.2572 7.68394C16.6085 6.48697 16.5779 5.21027 16.1698 4.03147C15.7617 2.85267 14.9963 1.83039 13.9801 1.10686C12.9639 0.383322 11.7474 -0.00549316 10.5 -0.00549316C9.25255 -0.00549316 8.03611 0.383322 7.01993 1.10686C6.00374 1.83039 5.23834 2.85267 4.83021 4.03147C4.42208 5.21027 4.39151 6.48697 4.74276 7.68394C5.09401 8.88092 5.8096 9.93866 6.79 10.71C5.11007 11.383 3.64428 12.4994 2.54889 13.9399C1.45349 15.3805 0.76956 17.0913 0.569997 18.89C0.555551 19.0213 0.567113 19.1542 0.604022 19.2811C0.640931 19.4079 0.702464 19.5263 0.785108 19.6293C0.952016 19.8375 1.19478 19.9708 1.46 20C1.72521 20.0292 1.99116 19.9518 2.19932 19.7849C2.40749 19.618 2.54082 19.3752 2.57 19.11C2.78958 17.1552 3.72168 15.3498 5.18822 14.0388C6.65475 12.7278 8.5529 12.003 10.52 12.003C12.4871 12.003 14.3852 12.7278 15.8518 14.0388C17.3183 15.3498 18.2504 17.1552 18.47 19.11C18.4972 19.3557 18.6144 19.5827 18.7991 19.747C18.9838 19.9114 19.2228 20.0015 19.47 20H19.58C19.8421 19.9698 20.0817 19.8373 20.2466 19.6313C20.4114 19.4252 20.4881 19.1624 20.46 18.9C20.2595 17.0962 19.5719 15.381 18.4708 13.9382C17.3698 12.4954 15.8969 11.3795 14.21 10.71ZM10.5 10C9.70887 10 8.93551 9.76541 8.27772 9.32588C7.61992 8.88636 7.10723 8.26164 6.80448 7.53074C6.50173 6.79983 6.42251 5.99557 6.57686 5.21964C6.7312 4.44372 7.11216 3.73099 7.67157 3.17158C8.23098 2.61217 8.94371 2.2312 9.71964 2.07686C10.4956 1.92252 11.2998 2.00173 12.0307 2.30448C12.7616 2.60724 13.3863 3.11993 13.8259 3.77772C14.2654 4.43552 14.5 5.20888 14.5 6C14.5 7.06087 14.0786 8.07828 13.3284 8.82843C12.5783 9.57858 11.5609 10 10.5 10Z" fill="#868687"/>
</svg>
